<svg width="335" height="58" viewBox="0 0 335 58" fill="none" xmlns="http://www.w3.org/2000/svg">
<path d="M277.085 14.1617L279.719 2.74353C280.089 1.12936 281.508 -1.75927e-06 283.17 -1.75927e-06C311.752 0.00226375 335 23.2464 335 51.8258C335 53.4864 333.871 54.9069 332.256 55.2751L320.836 57.9087C319.173 58.2941 317.474 57.4309 316.783 55.8562L311.512 43.5658C310.896 42.1181 311.312 40.4314 312.53 39.4369L318.629 34.54C314.78 26.699 308.404 20.3239 300.559 16.4725L295.565 22.5667C294.581 23.7879 292.881 24.2104 291.434 23.5834L279.141 18.315C277.663 17.5373 276.7 15.8155 277.085 14.1617Z" fill="#2D6969"/>
<path d="M59.3333 7.25V50.75C59.3333 54.7541 56.0128 58 51.9167 58H7.41667C3.3205 58 0 54.7541 0 50.75V7.25C0 3.24589 3.3205 0 7.41667 0H51.9167C56.0113 0 59.3333 3.24589 59.3333 7.25ZM89 9.59115V48.3937C89 52.2453 84.4928 54.4943 81.214 52.2891L64.2778 40.887V17.113L81.2125 5.70031C84.5036 3.49359 89 5.75469 89 9.59115Z" fill="#000936"/>
<path d="M101.936 38L97.1497 21.2727H101.013L103.782 32.8952H103.921L106.975 21.2727H110.283L113.33 32.9197H113.477L116.246 21.2727H120.109L115.323 38H111.876L108.691 27.0636H108.56L105.383 38H101.936ZM126.306 38.245C125.016 38.245 123.905 37.9837 122.974 37.4609C122.048 36.9328 121.335 36.1868 120.834 35.223C120.333 34.2538 120.082 33.1076 120.082 31.7844C120.082 30.494 120.333 29.3614 120.834 28.3867C121.335 27.4121 122.04 26.6525 122.949 26.108C123.864 25.5634 124.937 25.2912 126.167 25.2912C126.995 25.2912 127.765 25.4246 128.479 25.6914C129.197 25.9528 129.824 26.3475 130.357 26.8757C130.896 27.4039 131.315 28.0682 131.615 28.8686C131.914 29.6636 132.064 30.5947 132.064 31.6619V32.6175H121.471V30.4613H128.789C128.789 29.9603 128.68 29.5166 128.462 29.13C128.244 28.7434 127.942 28.4412 127.556 28.2234C127.175 28.0001 126.731 27.8885 126.224 27.8885C125.696 27.8885 125.228 28.011 124.82 28.256C124.417 28.4956 124.101 28.8196 123.872 29.228C123.643 29.6309 123.526 30.0801 123.521 30.5756V32.6257C123.521 33.2464 123.635 33.7828 123.864 34.2347C124.098 34.6867 124.427 35.0352 124.852 35.2802C125.277 35.5252 125.781 35.6477 126.363 35.6477C126.75 35.6477 127.104 35.5933 127.425 35.4844C127.746 35.3755 128.021 35.2121 128.25 34.9943C128.479 34.7765 128.653 34.5097 128.773 34.1939L131.991 34.4062C131.827 35.1795 131.492 35.8546 130.986 36.4318C130.485 37.0036 129.837 37.45 129.042 37.7713C128.253 38.0871 127.341 38.245 126.306 38.245ZM134.4 38V21.2727H137.88V27.5618H137.986C138.138 27.2242 138.359 26.8812 138.647 26.5327C138.941 26.1787 139.322 25.8847 139.791 25.6506C140.264 25.411 140.853 25.2912 141.555 25.2912C142.47 25.2912 143.314 25.5308 144.087 26.0099C144.86 26.4837 145.478 27.1997 145.941 28.158C146.404 29.1109 146.635 30.3061 146.635 31.7436C146.635 33.143 146.409 34.3246 145.957 35.2884C145.511 36.2467 144.901 36.9736 144.128 37.4691C143.36 37.9592 142.5 38.2042 141.547 38.2042C140.872 38.2042 140.297 38.0926 139.823 37.8693C139.355 37.6461 138.971 37.3656 138.672 37.0281C138.372 36.685 138.144 36.3393 137.986 35.9908H137.831V38H134.4ZM137.806 31.7273C137.806 32.4732 137.909 33.1239 138.116 33.6793C138.323 34.2347 138.623 34.6676 139.015 34.978C139.407 35.2829 139.883 35.4354 140.444 35.4354C141.01 35.4354 141.49 35.2802 141.882 34.9698C142.274 34.654 142.57 34.2184 142.772 33.663C142.979 33.1022 143.082 32.4569 143.082 31.7273C143.082 31.0031 142.982 30.366 142.78 29.8161C142.579 29.2661 142.282 28.8359 141.89 28.5256C141.498 28.2152 141.016 28.06 140.444 28.06C139.878 28.06 139.399 28.2098 139.007 28.5092C138.62 28.8087 138.323 29.2334 138.116 29.7834C137.909 30.3333 137.806 30.9813 137.806 31.7273ZM149.022 38V21.2727H155.622C156.885 21.2727 157.963 21.4987 158.856 21.9506C159.754 22.3971 160.438 23.0315 160.906 23.8537C161.38 24.6705 161.617 25.6315 161.617 26.7369C161.617 27.8477 161.377 28.8033 160.898 29.6037C160.419 30.3987 159.724 31.0085 158.815 31.4332C157.911 31.858 156.817 32.0703 155.532 32.0703H151.113V29.228H154.96C155.635 29.228 156.196 29.1354 156.643 28.9503C157.089 28.7652 157.421 28.4875 157.639 28.1172C157.862 27.7469 157.974 27.2868 157.974 26.7369C157.974 26.1815 157.862 25.7132 157.639 25.332C157.421 24.9509 157.086 24.6623 156.634 24.4663C156.188 24.2648 155.624 24.1641 154.944 24.1641H152.559V38H149.022ZM158.056 30.3878L162.213 38H158.309L154.241 30.3878H158.056ZM163.479 24.1886V21.2727H177.217V24.1886H172.096V38H168.6V24.1886H163.479ZM193.474 27.1289H189.897C189.832 26.6661 189.698 26.255 189.497 25.8956C189.295 25.5308 189.037 25.2204 188.721 24.9645C188.405 24.7086 188.04 24.5125 187.626 24.3764C187.218 24.2403 186.774 24.1722 186.295 24.1722C185.429 24.1722 184.675 24.3873 184.033 24.8175C183.39 25.2422 182.892 25.8629 182.538 26.6797C182.184 27.491 182.007 28.4766 182.007 29.6364C182.007 30.8288 182.184 31.8307 182.538 32.642C182.897 33.4534 183.398 34.0659 184.041 34.4798C184.683 34.8936 185.427 35.1005 186.271 35.1005C186.744 35.1005 187.183 35.0379 187.586 34.9126C187.994 34.7874 188.356 34.605 188.672 34.3654C188.988 34.1204 189.249 33.8236 189.456 33.4751C189.668 33.1267 189.815 32.7292 189.897 32.2827L193.474 32.299C193.382 33.0668 193.15 33.8073 192.78 34.5206C192.415 35.2285 191.923 35.8628 191.302 36.4237C190.687 36.979 189.951 37.4201 189.097 37.7468C188.247 38.0681 187.286 38.2287 186.213 38.2287C184.721 38.2287 183.387 37.8911 182.211 37.2159C181.041 36.5407 180.115 35.5633 179.434 34.2837C178.759 33.0041 178.422 31.455 178.422 29.6364C178.422 27.8123 178.765 26.2604 179.451 24.9808C180.137 23.7012 181.068 22.7266 182.244 22.0568C183.42 21.3816 184.743 21.044 186.213 21.044C187.183 21.044 188.081 21.1802 188.909 21.4524C189.742 21.7247 190.48 22.1222 191.122 22.6449C191.765 23.1622 192.287 23.7965 192.69 24.5479C193.099 25.2994 193.36 26.1597 193.474 27.1289ZM201.334 38V21.2727H207.933C209.202 21.2727 210.283 21.515 211.176 21.9996C212.069 22.4788 212.749 23.1458 213.218 24.0007C213.691 24.8501 213.928 25.8303 213.928 26.9411C213.928 28.0518 213.689 29.032 213.209 29.8814C212.73 30.7308 212.036 31.3924 211.127 31.8661C210.223 32.3398 209.128 32.5767 207.843 32.5767H203.637V29.7425H207.272C207.952 29.7425 208.513 29.6255 208.954 29.3913C209.401 29.1518 209.733 28.8223 209.951 28.4031C210.174 27.9783 210.285 27.491 210.285 26.9411C210.285 26.3857 210.174 25.901 209.951 25.4872C209.733 25.0679 209.401 24.744 208.954 24.5153C208.508 24.2811 207.941 24.1641 207.255 24.1641H204.87V38H201.334ZM219.639 30.7472V38H216.16V21.2727H219.541V27.668H219.688C219.972 26.9274 220.429 26.3475 221.061 25.9283C221.692 25.5036 222.484 25.2912 223.437 25.2912C224.309 25.2912 225.068 25.4818 225.716 25.8629C226.369 26.2386 226.876 26.7804 227.235 27.4883C227.6 28.1907 227.78 29.032 227.774 30.0121V38H224.295V30.6328C224.3 29.8596 224.104 29.2579 223.707 28.8278C223.315 28.3976 222.765 28.1825 222.057 28.1825C221.583 28.1825 221.164 28.2833 220.799 28.4847C220.44 28.6862 220.157 28.9802 219.95 29.3668C219.748 29.748 219.645 30.2081 219.639 30.7472ZM236.181 38.245C234.912 38.245 233.815 37.9755 232.889 37.4364C231.969 36.8919 231.258 36.1351 230.758 35.1658C230.257 34.1912 230.006 33.0613 230.006 31.7763C230.006 30.4804 230.257 29.3478 230.758 28.3786C231.258 27.4039 231.969 26.647 232.889 26.108C233.815 25.5634 234.912 25.2912 236.181 25.2912C237.45 25.2912 238.544 25.5634 239.464 26.108C240.39 26.647 241.103 27.4039 241.604 28.3786C242.105 29.3478 242.356 30.4804 242.356 31.7763C242.356 33.0613 242.105 34.1912 241.604 35.1658C241.103 36.1351 240.39 36.8919 239.464 37.4364C238.544 37.9755 237.45 38.245 236.181 38.245ZM236.197 35.5497C236.774 35.5497 237.256 35.3864 237.643 35.0597C238.029 34.7275 238.321 34.2756 238.517 33.7038C238.718 33.1321 238.819 32.4814 238.819 31.7518C238.819 31.0221 238.718 30.3714 238.517 29.7997C238.321 29.228 238.029 28.776 237.643 28.4439C237.256 28.1117 236.774 27.9457 236.197 27.9457C235.615 27.9457 235.124 28.1117 234.727 28.4439C234.335 28.776 234.038 29.228 233.837 29.7997C233.641 30.3714 233.543 31.0221 233.543 31.7518C233.543 32.4814 233.641 33.1321 233.837 33.7038C234.038 34.2756 234.335 34.7275 234.727 35.0597C235.124 35.3864 235.615 35.5497 236.197 35.5497ZM248.097 30.7472V38H244.618V25.4545H247.934V27.668H248.081C248.359 26.9383 248.824 26.3611 249.478 25.9364C250.131 25.5063 250.923 25.2912 251.854 25.2912C252.726 25.2912 253.485 25.4818 254.133 25.8629C254.781 26.2441 255.285 26.7886 255.644 27.4964C256.004 28.1989 256.183 29.0374 256.183 30.0121V38H252.704V30.6328C252.709 29.8651 252.513 29.2661 252.116 28.8359C251.718 28.4003 251.171 28.1825 250.474 28.1825C250.006 28.1825 249.592 28.2833 249.233 28.4847C248.879 28.6862 248.601 28.9802 248.4 29.3668C248.204 29.748 248.103 30.2081 248.097 30.7472ZM264.643 38.245C263.352 38.245 262.242 37.9837 261.311 37.4609C260.385 36.9328 259.672 36.1868 259.171 35.223C258.67 34.2538 258.419 33.1076 258.419 31.7844C258.419 30.494 258.67 29.3614 259.171 28.3867C259.672 27.4121 260.377 26.6525 261.286 26.108C262.201 25.5634 263.273 25.2912 264.504 25.2912C265.332 25.2912 266.102 25.4246 266.816 25.6914C267.534 25.9528 268.16 26.3475 268.694 26.8757C269.233 27.4039 269.652 28.0682 269.952 28.8686C270.251 29.6636 270.401 30.5947 270.401 31.6619V32.6175H259.808V30.4613H267.126C267.126 29.9603 267.017 29.5166 266.799 29.13C266.581 28.7434 266.279 28.4412 265.893 28.2234C265.511 28.0001 265.068 27.8885 264.561 27.8885C264.033 27.8885 263.565 28.011 263.156 28.256C262.753 28.4956 262.438 28.8196 262.209 29.228C261.98 29.6309 261.863 30.0801 261.858 30.5756V32.6257C261.858 33.2464 261.972 33.7828 262.201 34.2347C262.435 34.6867 262.764 35.0352 263.189 35.2802C263.614 35.5252 264.117 35.6477 264.7 35.6477C265.087 35.6477 265.441 35.5933 265.762 35.4844C266.083 35.3755 266.358 35.2121 266.587 34.9943C266.816 34.7765 266.99 34.5097 267.11 34.1939L270.328 34.4062C270.164 35.1795 269.829 35.8546 269.323 36.4318C268.822 37.0036 268.174 37.45 267.379 37.7713C266.59 38.0871 265.677 38.245 264.643 38.245Z" fill="white"/>
</svg>
